<svg xmlns="http://www.w3.org/2000/svg" version="1.1" xmlns:xlink="http://www.w3.org/1999/xlink" width="512" height="512" x="0" y="0" viewBox="0 0 6.35 6.35" style="enable-background:new 0 0 512 512" xml:space="preserve" class=""><g><path d="M.264.793A.265.265 0 0 0 0 1.059a.265.265 0 0 0 .264.263h5.822a.265.265 0 0 0 .264-.263.265.265 0 0 0-.264-.266ZM.264 5.027A.265.265 0 0 0 0 5.291a.265.265 0 0 0 .264.266h5.822a.265.265 0 0 0 .264-.266.265.265 0 0 0-.264-.264ZM.264 2.91A.265.265 0 0 0 0 3.176a.265.265 0 0 0 .264.263h4.763a.265.265 0 0 0 .264-.263.265.265 0 0 0-.264-.266Z" style="color:rgb(0,0,0);stroke-linecap:round;-inkscape-stroke:none" fill="#000000" data-original="#000000"></path></g></svg>