<svg xmlns="http://www.w3.org/2000/svg" version="1.1" xmlns:xlink="http://www.w3.org/1999/xlink" width="512" height="512" x="0" y="0" viewBox="0 0 48 48" style="enable-background:new 0 0 512 512" xml:space="preserve"><g><g data-name="wedding ring"><path fill="#f94b81" d="m37 10.32-2.64 3.93-.02.03-.16.24c-.39-.08-.79-.14-1.2-.19-.18-.02-.36-.04-.55-.05a.127.127 0 0 0-.06-.01 1.154 1.154 0 0 0-.19-.01c-.31-.02-.63-.03-.95-.03-.3 0-.6.01-.89.03-.13.01-.26.02-.39.04a13.31 13.31 0 0 0-1.68.23l-2.82-4.21.04-.06L28.34 6h5.77l2.85 4.26z" opacity="1" data-original="#f94b81"></path><path fill="#f94b81" d="m37 10.32-2.64 3.93-.02.03-.16.24c-.39-.08-.79-.14-1.2-.19-.18-.02-.36-.04-.55-.05a.127.127 0 0 0-.06-.01 1.154 1.154 0 0 0-.19-.01c-.31-.02-.63-.03-.95-.03-.3 0-.6.01-.89.03-.13.01-.26.02-.39.04a13.31 13.31 0 0 0-1.68.23l-2.82-4.21.04-.06L28.34 6h5.77l2.85 4.26z" opacity="1" data-original="#f94b81"></path><path fill="#ff648d" d="m37 10.32-2.64 3.93-.02.03-.16.24c-.39-.08-.79-.14-1.2-.19-.18-.02-.36-.04-.55-.05a.127.127 0 0 0-.06-.01 1.154 1.154 0 0 0-.19-.01c-.31-.02-.63-.03-.95-.03-.3 0-.6.01-.89.03-.13.01-.26.02-.39.04a13.31 13.31 0 0 0-1.68.23l-2.82-4.21.04-.06h11.47z" opacity="1" data-original="#ff648d"></path><path fill="#ff769a" d="m35.08 10.33-2.65 3.95a.127.127 0 0 0-.06-.01 1.154 1.154 0 0 0-.19-.01c-.31-.02-.63-.03-.95-.03-.3 0-.6.01-.89.03-.13.01-.26.02-.39.04a.34.34 0 0 0-.1.01 13.652 13.652 0 0 0-1.58.22l-2.82-4.21.04-.06L28.34 6h3.84l2.85 4.26z" opacity="1" data-original="#ff769a"></path><path fill="#ff769a" d="m35.08 10.33-2.65 3.95a.127.127 0 0 0-.06-.01 1.154 1.154 0 0 0-.19-.01c-.31-.02-.63-.03-.95-.03-.3 0-.6.01-.89.03-.13.01-.26.02-.39.04a.34.34 0 0 0-.1.01 13.652 13.652 0 0 0-1.58.22l-2.82-4.21.04-.06L28.34 6h3.84l2.85 4.26z" opacity="1" data-original="#ff769a"></path><path fill="#ff648d" d="m35.08 10.33-2.65 3.95a.127.127 0 0 0-.06-.01 1.154 1.154 0 0 0-.19-.01c-.31-.02-.63-.03-.95-.03-.3 0-.6.01-.89.03-.13.01-.26.02-.39.04a.34.34 0 0 0-.1.01l-2.67-3.98.05-.07L30.08 6h2.1l2.85 4.26z" opacity="1" data-original="#ff648d"></path><path fill="#ff648d" d="m35.08 10.33-2.65 3.95a.127.127 0 0 0-.06-.01 1.154 1.154 0 0 0-.19-.01c-.31-.02-.63-.03-.95-.03-.3 0-.6.01-.89.03-.13.01-.26.02-.39.04a.34.34 0 0 0-.1.01l-2.67-3.98.05-.07L30.08 6h2.1l2.85 4.26z" opacity="1" data-original="#ff648d"></path><path fill="#ffad1d" d="M22.5 15.38A14.768 14.768 0 1 0 31.56 29a14.702 14.702 0 0 0-9.06-13.62zm-3.53 24.17a11.114 11.114 0 0 1-2.18.22 10.77 10.77 0 1 1 0-21.54 11.113 11.113 0 0 1 2.18.22 10.774 10.774 0 0 1 0 21.1z" opacity="1" data-original="#ffad1d"></path><path fill="#f78f1e" d="M24.94 36.03a9.422 9.422 0 0 0 3.53 1.99 14.735 14.735 0 0 1-5.97 4.6 15.912 15.912 0 0 1-3.53-3.07 10.688 10.688 0 0 0 5.97-3.52zM18.97 18.45a15.91 15.91 0 0 1 3.53-3.07 14.735 14.735 0 0 1 5.97 4.6 9.423 9.423 0 0 0-3.53 1.99 10.688 10.688 0 0 0-5.97-3.52z" opacity="1" data-original="#f78f1e"></path><path fill="#ffad1d" d="M31.23 14.23c-.13 0-.27 0-.4.01a14.765 14.765 0 0 0-1.2 29.44 14.038 14.038 0 0 0 1.6.09 14.77 14.77 0 0 0 0-29.54zM20.45 29a10.775 10.775 0 1 1 10.78 10.77A10.776 10.776 0 0 1 20.45 29z" opacity="1" data-original="#ffad1d"></path><path fill="#ffe266" d="M30.9 14.25c-.02 0-.05-.01-.07-.01a14.765 14.765 0 0 0-1.2 29.44c.43-.01.85-.04 1.27-.09a14.764 14.764 0 0 0 0-29.34zm.33 25.52A10.77 10.77 0 1 1 42 29a10.776 10.776 0 0 1-10.77 10.77z" opacity="1" data-original="#ffe266"></path><path fill="#ffc239" d="M30.9 14.25a14.764 14.764 0 0 0 0 29.34 14.764 14.764 0 0 0 0-29.34zm.33 25.52A10.77 10.77 0 1 1 42 29a10.776 10.776 0 0 1-10.77 10.77z" opacity="1" data-original="#ffc239"></path><ellipse cx="28.167" cy="7.674" fill="#ffffff" rx="1.021" ry=".363" transform="rotate(-53.29 28.162 7.669)" opacity="1" data-original="#ffffff"></ellipse><circle cx="27.366" cy="8.915" r=".154" fill="#ffffff" opacity="1" data-original="#ffffff"></circle><path fill="#f94b81" d="m35.08 10.33-2.65 3.95a.127.127 0 0 0-.06-.01 1.154 1.154 0 0 0-.19-.01c-.31-.02-.63-.03-.95-.03-.3 0-.6.01-.89.03-.13.01-.26.02-.39.04a.34.34 0 0 0-.1.01 13.652 13.652 0 0 0-1.58.22l-2.82-4.21.04-.06h9.54z" opacity="1" data-original="#f94b81"></path><path fill="#ff769a" d="m35.08 10.33-2.65 3.95a.127.127 0 0 0-.06-.01 1.154 1.154 0 0 0-.19-.01c-.31-.02-.63-.03-.95-.03-.3 0-.6.01-.89.03-.13.01-.26.02-.39.04a.34.34 0 0 0-.1.01l-2.67-3.98.05-.07h7.8z" opacity="1" data-original="#ff769a"></path></g></g></svg>